<svg width="20" height="21" viewBox="0 0 20 21" fill="none"
  xmlns="http://www.w3.org/2000/svg">
  <g clip-path="url(#clip0_442_5170)">
    <path d="M19.8678 10.1799L15.3225 5.63448C15.1592 5.44381 14.8722 5.42159 14.6816 5.58491C14.4909 5.74818 14.4687 6.03513 14.632 6.22579C14.6472 6.24357 14.6638 6.26017 14.6816 6.27536L18.4497 10.048H0.454523C0.203512 10.048 0 10.2515 0 10.5026C0 10.7536 0.203512 10.9571 0.454523 10.9571H18.4497L14.6816 14.7252C14.4909 14.8885 14.4687 15.1754 14.632 15.3661C14.7953 15.5568 15.0822 15.579 15.2729 15.4157C15.2907 15.4004 15.3073 15.3839 15.3225 15.3661L19.8679 10.8207C20.0441 10.6435 20.0441 10.3572 19.8678 10.1799Z" fill="white"/>
  </g>
  <defs>
    <clipPath id="clip0_442_5170">
      <rect width="20" height="20" fill="white" transform="translate(0 0.5)"/>
    </clipPath>
  </defs>
</svg>
