<svg width="189" height="200" viewBox="0 0 189 200" fill="none"
  xmlns="http://www.w3.org/2000/svg">
  <g clip-path="url(#clip0_442_5254)">
    <path d="M83.2743 69.1686C78.4961 66.4277 74.6222 68.6731 74.6222 74.1797V114.816C74.6222 120.329 78.4961 122.571 83.2743 119.833L118.793 99.4631C123.573 96.7213 123.573 92.2791 118.793 89.5379L83.2743 69.1686Z" fill="white"/>
  </g>
  <path d="M174.299 99.9295L189 94.8267L188.822 97.0208L175.257 101.705L175.359 100.445L187.989 107.301L187.825 109.332L174.136 101.941L174.299 99.9295Z" fill="white"/>
  <path d="M173.003 109.942L186.938 112.883L186.519 114.877L172.584 111.937L173.003 109.942Z" fill="white"/>
  <path d="M171.92 115.657L185.327 120.468L183.303 126.129C182.791 127.562 182.059 128.721 181.109 129.607C180.154 130.505 179.064 131.074 177.841 131.314C176.613 131.566 175.334 131.453 174.007 130.977C172.679 130.5 171.62 129.774 170.831 128.798C170.037 127.835 169.556 126.702 169.388 125.401C169.215 124.112 169.384 122.751 169.896 121.318L171.92 115.657ZM172.9 118.174L171.604 121.801C171.206 122.914 171.074 123.949 171.207 124.906C171.335 125.876 171.696 126.72 172.29 127.438C172.896 128.161 173.697 128.701 174.693 129.058C175.701 129.42 176.662 129.512 177.576 129.335C178.489 129.157 179.303 128.735 180.017 128.067C180.726 127.413 181.28 126.529 181.678 125.416L182.974 121.789L172.9 118.174Z" fill="white"/>
  <path d="M172.345 135.947L168.69 142.305L167.192 141.441L170.847 135.082L172.345 135.947ZM166.771 132.942L162.629 140.148L161.095 139.263L166.253 130.291L178.593 137.412L173.578 146.137L172.044 145.252L176.044 138.293L166.771 132.942Z" fill="white"/>
  <path d="M155.324 146.32C156.027 145.492 156.821 144.84 157.707 144.365C158.584 143.899 159.49 143.619 160.425 143.525C161.371 143.439 162.302 143.538 163.22 143.821C164.137 144.104 164.993 144.584 165.788 145.263C166.583 145.941 167.193 146.712 167.618 147.574C168.043 148.436 168.284 149.337 168.34 150.278C168.406 151.227 168.279 152.172 167.96 153.113C167.641 154.054 167.125 154.944 166.413 155.782C165.71 156.61 164.924 157.251 164.056 157.706C163.19 158.181 162.284 158.461 161.338 158.546C160.394 158.651 159.468 158.557 158.559 158.263C157.642 157.98 156.78 157.495 155.975 156.808C155.169 156.121 154.554 155.346 154.129 154.484C153.696 153.632 153.45 152.726 153.392 151.767C153.336 150.827 153.468 149.886 153.787 148.945C154.108 148.022 154.62 147.148 155.324 146.32ZM156.702 147.496C156.192 148.096 155.825 148.738 155.6 149.421C155.367 150.114 155.278 150.806 155.333 151.495C155.39 152.204 155.583 152.878 155.914 153.516C156.235 154.165 156.695 154.745 157.294 155.256C157.893 155.767 158.537 156.13 159.228 156.344C159.91 156.569 160.599 156.649 161.296 156.583C161.995 156.537 162.667 156.343 163.314 156.002C163.951 155.671 164.525 155.206 165.035 154.606C165.554 153.995 165.93 153.344 166.163 152.65C166.387 151.967 166.471 151.271 166.414 150.562C166.368 149.862 166.184 149.188 165.863 148.539C165.533 147.9 165.068 147.326 164.469 146.815C163.87 146.304 163.23 145.936 162.548 145.711C161.858 145.496 161.159 145.418 160.451 145.474C159.754 145.54 159.087 145.738 158.449 146.069C157.803 146.41 157.221 146.886 156.702 147.496Z" fill="white"/>
  <path d="M145.428 160.824L146.949 162.792L145.187 174.275L143.296 175.621L144.568 166.613L144.766 164.922L145.428 160.824ZM144.896 156.977L153.146 168.607L151.488 169.787L143.238 158.158L144.896 156.977ZM136.671 162.834L145.367 164.994L145.128 167.015L134.731 164.216L136.671 162.834Z" fill="white"/>
  <path d="M127.754 167.275C128.74 166.822 129.735 166.567 130.738 166.509C131.729 166.458 132.668 166.587 133.556 166.896C134.449 167.218 135.252 167.701 135.965 168.346C136.678 168.99 137.252 169.788 137.687 170.739C138.122 171.69 138.351 172.646 138.373 173.607C138.396 174.569 138.234 175.488 137.889 176.364C137.55 177.252 137.037 178.056 136.352 178.774C135.666 179.493 134.824 180.082 133.825 180.541C132.839 180.994 131.857 181.243 130.878 181.289C129.893 181.353 128.953 181.224 128.06 180.902C127.16 180.598 126.36 180.121 125.659 179.471C124.947 178.827 124.37 178.023 123.929 177.06C123.488 176.097 123.256 175.134 123.234 174.173C123.199 173.217 123.358 172.292 123.71 171.398C124.055 170.522 124.57 169.724 125.256 169.006C125.935 168.305 126.767 167.728 127.754 167.275ZM128.508 168.924C127.793 169.253 127.19 169.679 126.699 170.204C126.196 170.734 125.824 171.323 125.584 171.972C125.337 172.638 125.229 173.331 125.259 174.049C125.277 174.774 125.45 175.494 125.778 176.21C126.106 176.927 126.538 177.528 127.074 178.014C127.597 178.506 128.189 178.87 128.849 179.105C129.502 179.358 130.193 179.466 130.922 179.43C131.64 179.4 132.356 179.22 133.071 178.892C133.798 178.557 134.413 178.125 134.917 177.595C135.408 177.07 135.777 176.475 136.024 175.808C136.276 175.154 136.393 174.465 136.375 173.741C136.345 173.022 136.166 172.305 135.838 171.588C135.51 170.872 135.084 170.268 134.561 169.776C134.025 169.29 133.424 168.923 132.759 168.675C132.099 168.44 131.411 168.338 130.694 168.368C129.964 168.405 129.236 168.59 128.508 168.924Z" fill="white"/>
  <path d="M121.325 185.977L121.082 181.723L121.663 182.781C121.287 182.897 120.94 182.876 120.622 182.718C120.303 182.56 120.085 182.287 119.965 181.897C119.845 181.508 119.87 181.151 120.041 180.829C120.211 180.506 120.478 180.289 120.841 180.177C121.217 180.061 121.566 180.088 121.888 180.259C122.214 180.443 122.435 180.723 122.551 181.099C122.591 181.229 122.622 181.355 122.645 181.475C122.655 181.6 122.658 181.749 122.654 181.921C122.654 182.105 122.645 182.329 122.626 182.59L122.55 185.6L121.325 185.977Z" fill="white"/>
  <path d="M114.45 172.344L117.118 186.359L111.662 187.402C110.437 187.636 109.354 187.642 108.414 187.421C107.475 187.199 106.702 186.766 106.096 186.121C105.49 185.476 105.09 184.646 104.897 183.632C104.704 182.617 104.771 181.698 105.097 180.875C105.426 180.065 105.987 179.384 106.779 178.832C107.571 178.279 108.58 177.886 109.806 177.651L114.162 176.819L113.439 177.912L112.451 172.726L114.45 172.344ZM105.097 174.131L109.623 178.537L107.484 178.946L102.919 174.548L105.097 174.131ZM113.4 177.711L114.486 178.521L110.19 179.342C108.911 179.586 107.997 180.044 107.449 180.716C106.889 181.404 106.705 182.249 106.895 183.25C107.086 184.251 107.566 184.961 108.337 185.381C109.094 185.804 110.112 185.893 111.391 185.649L115.687 184.827L114.978 186L113.4 177.711Z" fill="white"/>
  <path d="M100.6 174.48L101.479 188.721L99.4482 188.846L98.5696 174.606L100.6 174.48Z" fill="white"/>
  <path d="M90.1653 174.429C91.2487 174.488 92.276 174.707 93.247 175.086C94.2173 175.479 94.9726 175.955 95.5128 176.515L94.6755 178.062C94.1594 177.558 93.49 177.127 92.6672 176.769C91.8444 176.412 90.9793 176.208 90.0719 176.159C89.2458 176.114 88.5703 176.173 88.0455 176.335C87.5206 176.497 87.1275 176.734 86.8661 177.047C86.6041 177.373 86.4617 177.746 86.439 178.167C86.4126 178.655 86.5539 179.058 86.8628 179.374C87.1582 179.689 87.5584 179.949 88.0635 180.153C88.5543 180.37 89.1008 180.563 89.7029 180.732C90.305 180.901 90.9128 181.09 91.5262 181.3C92.1254 181.523 92.6746 181.791 93.1739 182.104C93.6596 182.416 94.0453 182.818 94.3312 183.31C94.6163 183.815 94.7383 184.448 94.6973 185.207C94.6578 185.94 94.4319 186.602 94.0198 187.192C93.5934 187.794 92.9708 188.257 92.152 188.58C91.3189 188.916 90.2794 189.051 89.0335 188.983C88.2074 188.938 87.3939 188.785 86.593 188.524C85.7922 188.263 85.1048 187.913 84.5309 187.474L85.2892 185.882C85.8766 186.322 86.5042 186.648 87.1718 186.861C87.8386 187.088 88.4903 187.219 89.1268 187.253C89.9259 187.296 90.5882 187.23 91.1138 187.055C91.6394 186.879 92.0332 186.628 92.2953 186.302C92.5438 185.975 92.6795 185.602 92.7022 185.181C92.7293 184.679 92.5951 184.27 92.2998 183.955C91.9908 183.639 91.5906 183.379 91.099 183.175C90.5939 182.971 90.0407 182.778 89.4393 182.596C88.8372 182.427 88.2362 182.238 87.6363 182.028C87.0229 181.818 86.4733 181.557 85.9876 181.245C85.4884 180.932 85.0958 180.53 84.81 180.038C84.5241 179.546 84.4013 178.927 84.4416 178.181C84.4804 177.462 84.713 176.801 85.1395 176.198C85.5651 175.609 86.2013 175.147 87.0479 174.811C87.8802 174.489 88.9194 174.362 90.1653 174.429Z" fill="white"/>
  <path d="M69.5178 185.726L67.5337 185.276L70.6806 171.361L72.6647 171.811L69.5178 185.726ZM80.6407 173.622L82.6248 174.072L79.4779 187.987L77.4938 187.537L80.6407 173.622ZM71.0835 177.973L79.4365 179.869L79.0454 181.598L70.6924 179.702L71.0835 177.973Z" fill="white"/>
  <path d="M50.5286 161.57L47.7206 176.902L45.9023 175.666L48.5145 161.531L49.5584 162.241L37.3831 169.877L35.6994 168.733L48.8618 160.437L50.5286 161.57Z" fill="white"/>
  <path d="M42.5985 155.61L33.2087 166.337L31.6792 164.993L41.069 154.266L42.5985 155.61Z" fill="white"/>
  <path d="M38.1593 151.852L27.4189 161.22L23.4782 156.685C22.4807 155.538 21.8286 154.332 21.5217 153.068C21.2059 151.794 21.2428 150.564 21.6323 149.377C22.0129 148.18 22.7351 147.118 23.7989 146.19C24.8628 145.262 26.0124 144.692 27.248 144.479C28.4747 144.256 29.696 144.388 30.9119 144.877C32.119 145.356 33.2212 146.169 34.2186 147.317L38.1593 151.852ZM35.4886 151.479L32.9639 148.573C32.1891 147.682 31.3524 147.06 30.4538 146.709C29.5463 146.348 28.6349 146.251 27.7197 146.419C26.7943 146.595 25.9326 147.031 25.1348 147.727C24.3267 148.432 23.7767 149.227 23.4849 150.112C23.1931 150.998 23.1634 151.915 23.3958 152.866C23.6193 153.806 24.1184 154.722 24.8932 155.613L27.4179 158.519L35.4886 151.479Z" fill="white"/>
  <path d="M20.2654 142.294L16.5172 135.99L18.0028 135.103L21.751 141.407L20.2654 142.294ZM25.6072 138.892L21.3593 131.747L22.8798 130.84L28.1689 139.735L15.9347 147.037L10.7913 138.387L12.3118 137.48L16.414 144.379L25.6072 138.892Z" fill="white"/>
  <path d="M19.6082 122.507C19.9855 123.526 20.1653 124.539 20.1474 125.546C20.1248 126.54 19.9263 127.469 19.5518 128.332C19.1645 129.201 18.6237 129.967 17.9292 130.631C17.2348 131.295 16.398 131.809 15.4189 132.173C14.4398 132.537 13.4709 132.694 12.5123 132.644C11.5537 132.595 10.6513 132.365 9.80508 131.955C8.94616 131.549 8.18466 130.977 7.52059 130.239C6.85651 129.5 6.33344 128.615 5.95137 127.583C5.57401 126.563 5.39899 125.563 5.42628 124.582C5.43614 123.593 5.63469 122.664 6.02192 121.795C6.39172 120.919 6.9262 120.155 7.62537 119.504C8.31983 118.84 9.16297 118.324 10.1548 117.955C11.1466 117.586 12.1219 117.427 13.0805 117.476C14.0344 117.513 14.9431 117.741 15.8068 118.159C16.653 118.569 17.4081 119.143 18.0722 119.882C18.7188 120.613 19.2308 121.488 19.6082 122.507ZM17.9106 123.138C17.637 122.399 17.2575 121.765 16.7721 121.235C16.2819 120.692 15.723 120.277 15.0955 119.988C14.4504 119.692 13.7692 119.532 13.0518 119.509C12.3297 119.473 11.5999 119.592 10.8623 119.866C10.1248 120.14 9.49406 120.527 8.97004 121.026C8.4413 121.512 8.03531 122.076 7.75206 122.718C7.45139 123.351 7.29181 124.034 7.27334 124.765C7.25015 125.484 7.37535 126.213 7.64893 126.952C7.92723 127.703 8.31146 128.35 8.80162 128.893C9.28706 129.423 9.85229 129.836 10.4973 130.132C11.1296 130.434 11.8068 130.602 12.5289 130.638C13.2464 130.661 13.9738 130.536 14.7113 130.262C15.4489 129.988 16.082 129.607 16.6107 129.121C17.1347 128.622 17.5447 128.049 17.8407 127.403C18.1239 126.762 18.2772 126.081 18.3003 125.363C18.3188 124.631 18.1889 123.89 17.9106 123.138Z" fill="white"/>
  <path d="M11.8137 106.829L9.35573 107.189L0.240978 100.007L0 97.6957L7.20465 103.233L8.57751 104.237L11.8137 106.829ZM15.4192 108.255L1.25562 109.737L1.04424 107.71L15.2078 106.228L15.4192 108.255ZM14.3707 98.1999L8.21934 104.725L6.58042 103.524L14.1234 95.828L14.3707 98.1999Z" fill="white"/>
  <path d="M14.8619 87.9175C14.77 89.0007 14.5019 89.9938 14.0578 90.8969C13.6147 91.7865 13.0401 92.5422 12.334 93.1639C11.6144 93.7844 10.7993 94.2468 9.8887 94.5511C8.97812 94.8553 8.00256 94.9631 6.962 94.8745C5.92145 94.7858 4.97806 94.5145 4.13186 94.0605C3.28565 93.6065 2.56695 93.0134 1.97576 92.2812C1.37106 91.5478 0.92535 90.7052 0.638638 89.7534C0.351927 88.8017 0.255122 87.7774 0.348222 86.6807C0.440174 85.5975 0.707089 84.618 1.14897 83.7419C1.57848 82.8512 2.15306 82.0955 2.8727 81.475C3.57998 80.8397 4.38833 80.3768 5.29776 80.086C6.20833 79.7818 7.19065 79.6746 8.24472 79.7644C9.29879 79.8542 10.2489 80.1261 11.0951 80.5801C11.9425 81.0205 12.668 81.6142 13.2715 82.3611C13.8627 83.0934 14.3016 83.9354 14.5884 84.8871C14.8627 85.8242 14.9539 86.8344 14.8619 87.9175ZM13.0579 87.7638C13.1245 86.9785 13.0509 86.2426 12.8369 85.5561C12.6241 84.8561 12.2952 84.2417 11.8501 83.7128C11.3926 83.1693 10.8442 82.7339 10.2051 82.4066C9.56702 82.0659 8.85611 81.8621 8.07231 81.7953C7.28852 81.7285 6.55347 81.8091 5.86716 82.037C5.182 82.2513 4.57491 82.5883 4.04588 83.0478C3.5045 83.4926 3.06993 84.042 2.74219 84.6959C2.4156 85.3363 2.21897 86.0492 2.1523 86.8344C2.08449 87.6333 2.15698 88.3827 2.36979 89.0827C2.58374 89.7692 2.91946 90.3842 3.37694 90.9278C3.82091 91.4702 4.36191 91.9118 4.99994 92.2525C5.63913 92.5797 6.35062 92.7767 7.13441 92.8435C7.91821 92.9103 8.65268 92.8365 9.33784 92.6222C10.0242 92.3943 10.6386 92.0511 11.1811 91.5928C11.7101 91.1333 12.1379 90.5833 12.4645 89.9429C12.7923 89.289 12.9901 88.5626 13.0579 87.7638Z" fill="white"/>
  <path d="M1.68382 73.3749L5.50826 75.2395L4.30337 75.2306C4.38589 74.8453 4.57353 74.5521 4.86629 74.351C5.15904 74.1499 5.50433 74.0921 5.90215 74.1776C6.29997 74.2632 6.59782 74.4592 6.79571 74.7658C6.99359 75.0724 7.0527 75.4117 6.97302 75.7838C6.8905 76.169 6.69623 76.4608 6.39021 76.6591C6.07093 76.8545 5.71902 76.9109 5.33446 76.8282C5.20185 76.7997 5.0773 76.7659 4.9608 76.727C4.84714 76.6748 4.71644 76.605 4.5687 76.5176C4.40769 76.4274 4.2178 76.3102 3.99903 76.1658L1.41491 74.6305L1.68382 73.3749Z" fill="white"/>
  <path d="M16.8712 74.0572L3.37659 69.4996L5.15064 64.2267C5.54921 63.0421 6.07564 62.0942 6.72995 61.3831C7.38425 60.672 8.14065 60.2105 8.99913 59.9986C9.85762 59.7866 10.7752 59.8456 11.752 60.1755C12.7287 60.5053 13.4947 61.015 14.05 61.7044C14.5923 62.3894 14.9091 63.2134 15.0002 64.1762C15.0913 65.1391 14.9376 66.2128 14.539 67.3975L13.1224 71.6081L12.528 70.4394L17.521 72.1257L16.8712 74.0572ZM19.9124 65.0179L13.8591 66.8022L14.5544 64.7355L20.6207 62.9126L19.9124 65.0179ZM12.7208 70.5045L11.4837 71.0547L12.8809 66.902C13.2968 65.6658 13.3474 64.6433 13.0328 63.8344C12.7096 63.0083 12.066 62.4325 11.1022 62.1069C10.1383 61.7814 9.28453 61.8516 8.54099 62.3174C7.80178 62.7704 7.22422 63.615 6.80833 64.8511L5.41118 69.0038L4.73971 67.8091L12.7208 70.5045Z" fill="white"/>
  <path d="M21.8526 60.7385L9.04375 54.5033L9.93279 52.67L22.7416 58.9052L21.8526 60.7385Z" fill="white"/>
  <path d="M26.9273 51.7965C26.3448 52.7137 25.6506 53.5032 24.8444 54.165C24.0269 54.8196 23.2421 55.2453 22.49 55.4424L21.5553 53.9526C22.247 53.7494 22.9502 53.3762 23.6648 52.8332C24.3794 52.2902 24.9805 51.6346 25.4683 50.8665C25.9125 50.1671 26.1927 49.5486 26.3092 49.0108C26.4257 48.473 26.4121 48.0134 26.2686 47.632C26.1135 47.2433 25.8587 46.9359 25.5039 46.7097C25.092 46.4471 24.6728 46.3732 24.2463 46.4878C23.8271 46.591 23.4048 46.8131 22.9794 47.1539C22.5498 47.4759 22.114 47.8585 21.672 48.3014C21.2299 48.7444 20.7671 49.1821 20.2834 49.6147C19.7956 50.0284 19.2932 50.3765 18.7762 50.659C18.2665 50.93 17.7277 51.0697 17.1598 51.0781C16.5804 51.0792 15.9703 50.8755 15.3295 50.467C14.7116 50.0731 14.2471 49.5515 13.9361 48.9022C13.6208 48.2342 13.5235 47.4635 13.6441 46.5902C13.7606 45.6981 14.1537 44.7246 14.8235 43.6699C15.2676 42.9706 15.7997 42.3353 16.4196 41.7642C17.0395 41.193 17.6813 40.7646 18.3449 40.479L19.3576 41.9219C18.6867 42.2189 18.0949 42.6067 17.5821 43.0851C17.0579 43.5562 16.6246 44.0611 16.2825 44.6C15.8529 45.2764 15.5856 45.8871 15.4806 46.4322C15.3756 46.9772 15.4006 47.4441 15.5556 47.8328C15.7179 48.2101 15.9764 48.5118 16.3311 48.7379C16.7545 49.0078 17.1758 49.0912 17.595 48.988C18.0214 48.8733 18.4437 48.6513 18.8619 48.3219C19.2873 47.9811 19.7268 47.5929 20.1802 47.1572C20.6223 46.7142 21.0815 46.2822 21.5579 45.8612C22.0416 45.4286 22.5382 45.0768 23.0479 44.8058C23.5649 44.5234 24.1073 44.378 24.6753 44.3696C25.2432 44.3612 25.8419 44.5576 26.4712 44.9588C27.0777 45.3454 27.5385 45.8727 27.8537 46.5407C28.1575 47.2015 28.2476 47.9836 28.1238 48.8872C27.9959 49.772 27.5971 50.7418 26.9273 51.7965Z" fill="white"/>
  <path d="M26.9486 28.5141L28.3121 27.0014L38.8808 36.5642L37.5173 38.0768L26.9486 28.5141ZM32.036 44.1579L30.6725 45.6706L20.1038 36.1078L21.4673 34.5951L32.036 44.1579ZM32.9294 33.6785L27.189 40.0469L25.8755 38.8584L31.6158 32.4899L32.9294 33.6785Z" fill="white"/>
  <path d="M57.2132 23.5376L45.2059 13.6252L47.1677 12.6339L58.2261 21.7931L57.0999 22.3621L56.3589 7.98969L58.1753 7.07186L59.0115 22.6289L57.2132 23.5376Z" fill="white"/>
  <path d="M66.4968 19.3762L61.7453 5.92604L63.6631 5.24596L68.4146 18.6961L66.4968 19.3762Z" fill="white"/>
  <path d="M71.8251 17.3347L68.9436 3.36206L74.8209 2.14539C76.3085 1.83744 77.6771 1.85937 78.9268 2.21118C80.1898 2.56024 81.2418 3.1958 82.0829 4.11784C82.9372 5.03714 83.5071 6.18877 83.7925 7.57272C84.0779 8.95668 84.0102 10.2403 83.5895 11.4235C83.1821 12.604 82.4676 13.6053 81.4461 14.4273C80.4379 15.2465 79.19 15.8101 77.7024 16.118L71.8251 17.3347ZM73.4593 15.1857L77.2247 14.4062C78.3803 14.167 79.3311 13.7412 80.0773 13.1288C80.8368 12.5137 81.368 11.7655 81.671 10.8841C81.9712 9.98944 82.0143 9.02312 81.8002 7.98515C81.5834 6.93388 81.1616 6.06379 80.5348 5.3749C79.9081 4.686 79.1244 4.20997 78.1838 3.9468C77.2564 3.68088 76.215 3.66753 75.0595 3.90674L71.294 4.68623L73.4593 15.1857Z" fill="white"/>
  <path d="M88.6054 6.37518L95.9265 6.17696L95.9732 7.90884L88.6522 8.10707L88.6054 6.37518ZM88.9594 12.7069L97.2566 12.4822L97.3044 14.2549L86.9736 14.5346L86.5889 0.272011L96.635 0L96.6828 1.77263L88.6703 1.98958L88.9594 12.7069Z" fill="white"/>
  <path d="M106.565 15.4369C105.493 15.266 104.524 14.9257 103.657 14.416C102.804 13.9085 102.094 13.2792 101.527 12.5283C100.961 11.7639 100.56 10.9157 100.324 9.98362C100.088 9.05155 100.051 8.06886 100.216 7.03557C100.38 6.00227 100.719 5.0794 101.232 4.26695C101.746 3.4545 102.389 2.77961 103.161 2.24228C103.935 1.69153 104.806 1.30762 105.775 1.09055C106.743 0.873477 107.769 0.851452 108.854 1.02447C109.926 1.19536 110.882 1.53352 111.721 2.03896C112.577 2.53312 113.287 3.16238 113.852 3.92673C114.433 4.6798 114.835 5.52131 115.058 6.45124C115.294 7.38331 115.329 8.37271 115.163 9.41942C114.997 10.4661 114.657 11.3957 114.143 12.2082C113.643 13.0228 112.999 13.7044 112.212 14.253C111.44 14.7903 110.569 15.1675 109.601 15.3846C108.648 15.5904 107.636 15.6078 106.565 15.4369ZM106.849 13.6454C107.626 13.7693 108.364 13.7494 109.063 13.5857C109.775 13.4241 110.411 13.1402 110.97 12.734C111.544 12.3165 112.018 11.8004 112.39 11.1855C112.776 10.5728 113.03 9.87734 113.154 9.09901C113.278 8.32069 113.251 7.58032 113.074 6.87791C112.911 6.17764 112.62 5.54643 112.201 4.9843C111.798 4.41088 111.283 3.93658 110.656 3.56139C110.042 3.18833 109.347 2.93986 108.57 2.81597C107.78 2.68994 107.028 2.70772 106.316 2.8693C105.617 3.03302 104.98 3.32362 104.406 3.74111C103.833 4.14517 103.354 4.65355 102.969 5.26624C102.596 5.88107 102.348 6.57765 102.225 7.35598C102.101 8.1343 102.121 8.8736 102.284 9.57388C102.461 10.2763 102.758 10.9153 103.175 11.4908C103.593 12.053 104.11 12.5205 104.723 12.8936C105.35 13.2688 106.059 13.5194 106.849 13.6454Z" fill="white"/>
  <path d="M124.496 16.416L125.395 14.096L136.124 9.69038L138.25 10.6195L129.89 14.1706L128.342 14.8725L124.496 16.416ZM121.48 18.8561L127.174 5.77851L129.039 6.59349L123.345 19.6711L121.48 18.8561ZM130.729 22.8984L128.094 14.3195L129.945 13.4831L132.91 23.8519L130.729 22.8984Z" fill="white"/>
  <path d="M138.815 27.996C137.917 27.3858 137.184 26.6658 136.615 25.8358C136.057 25.0135 135.68 24.1418 135.484 23.2206C135.296 22.2882 135.293 21.3498 135.473 20.4052C135.654 19.4607 136.037 18.5555 136.623 17.6895C137.209 16.8236 137.907 16.132 138.716 15.6146C139.525 15.0972 140.393 14.7592 141.32 14.6008C142.254 14.4312 143.206 14.4538 144.174 14.6689C145.143 14.8839 146.082 15.3003 146.991 15.9182C147.889 16.5284 148.612 17.2408 149.158 18.0555C149.723 18.8665 150.1 19.7383 150.288 20.6707C150.495 21.5995 150.503 22.5323 150.311 23.4692C150.131 24.4138 149.743 25.3246 149.15 26.2018C148.556 27.0789 147.854 27.7762 147.045 28.2936C146.247 28.8186 145.376 29.1622 144.43 29.3242C143.503 29.4826 142.556 29.4543 141.587 29.2393C140.637 29.0207 139.713 28.6062 138.815 27.996ZM139.831 26.4947C140.482 26.9371 141.159 27.2327 141.861 27.3816C142.575 27.538 143.271 27.5511 143.949 27.4209C144.646 27.287 145.293 27.0208 145.89 26.6223C146.499 26.2315 147.024 25.7099 147.466 25.0577C147.907 24.4054 148.197 23.7237 148.334 23.0125C148.483 22.3089 148.486 21.6135 148.345 20.9265C148.223 20.2358 147.957 19.5873 147.548 18.981C147.15 18.3824 146.626 17.8619 145.975 17.4195C145.313 16.9694 144.625 16.6662 143.911 16.5097C143.209 16.3609 142.51 16.3534 141.813 16.4873C141.123 16.6099 140.474 16.8667 139.865 17.2575C139.268 17.656 138.748 18.1814 138.307 18.8337C137.865 19.4859 137.57 20.1638 137.422 20.8674C137.284 21.5786 137.283 22.2834 137.416 22.9817C137.557 23.6688 137.827 24.3116 138.225 24.9103C138.634 25.5166 139.169 26.0447 139.831 26.4947Z" fill="white"/>
  <path d="M158.106 23.7196L154.609 26.1456L155.208 25.0977C155.502 25.3586 155.666 25.6662 155.697 26.0205C155.729 26.3747 155.61 26.7046 155.34 27.0101C155.071 27.3156 154.754 27.4796 154.391 27.5021C154.027 27.5247 153.703 27.41 153.418 27.1581C153.123 26.8972 152.965 26.5845 152.942 26.2201C152.929 25.8455 153.052 25.5105 153.312 25.2152C153.402 25.1134 153.493 25.0211 153.584 24.9385C153.685 24.8648 153.81 24.7849 153.958 24.6987C154.115 24.6023 154.31 24.4939 154.543 24.3736L157.146 22.8694L158.106 23.7196Z" fill="white"/>
  <path d="M150.172 36.7341L160.74 27.1714L164.463 31.301C165.299 32.2288 165.867 33.1525 166.166 34.0721C166.465 34.9917 166.496 35.8785 166.261 36.7323C166.025 37.5862 165.525 38.3592 164.76 39.0514C163.995 39.7435 163.177 40.1636 162.305 40.3115C161.444 40.4504 160.571 40.3241 159.689 39.9327C158.806 39.5413 157.946 38.8817 157.11 37.954L154.138 34.6563L155.446 34.7086L151.535 38.2468L150.172 36.7341ZM156.553 43.8135L157.961 37.651L159.42 39.2696L158.039 45.4623L156.553 43.8135ZM155.295 34.8452L155.421 33.4951L158.352 36.7474C159.225 37.7155 160.09 38.2599 160.949 38.3807C161.826 38.5024 162.642 38.2217 163.397 37.5387C164.152 36.8556 164.508 36.0753 164.466 35.1977C164.434 34.3301 163.981 33.4123 163.108 32.4441L160.177 29.1919L161.545 29.1895L155.295 34.8452Z" fill="white"/>
  <path d="M159.254 47.4714L170.921 39.2906L172.087 40.9606L160.42 49.1414L159.254 47.4714Z" fill="white"/>
  <path d="M164.595 56.2604C164.078 55.3047 163.727 54.3131 163.541 53.2856C163.368 52.2517 163.378 51.3576 163.571 50.6033L165.325 50.5087C165.166 51.2132 165.15 52.0102 165.276 52.8998C165.403 53.7894 165.683 54.6344 166.116 55.4348C166.51 56.1635 166.913 56.7096 167.326 57.0729C167.738 57.4362 168.146 57.6476 168.548 57.7073C168.963 57.7604 169.355 57.6866 169.724 57.4859C170.154 57.2528 170.422 56.9216 170.529 56.4925C170.643 56.0752 170.654 55.5976 170.564 55.0594C170.491 54.5268 170.37 53.9593 170.198 53.3569C170.026 52.7546 169.869 52.1366 169.727 51.5028C169.603 50.8746 169.544 50.2655 169.548 49.6756C169.56 49.0976 169.7 48.5579 169.968 48.0565C170.249 47.5486 170.723 47.1134 171.391 46.7508C172.035 46.4011 172.715 46.2478 173.433 46.2909C174.169 46.3395 174.888 46.6288 175.592 47.1588C176.313 47.6942 176.971 48.5115 177.566 49.6106C177.96 50.3393 178.256 51.1138 178.453 51.9342C178.65 52.7546 178.712 53.5247 178.638 54.2446L176.888 54.4303C176.955 53.6985 176.904 52.9918 176.736 52.3103C176.58 51.6224 176.35 50.9976 176.046 50.4362C175.664 49.7313 175.262 49.2005 174.837 48.8437C174.413 48.4868 173.993 48.2819 173.579 48.2287C173.171 48.1875 172.782 48.2673 172.412 48.468C171.971 48.7076 171.694 49.036 171.58 49.4532C171.473 49.8824 171.461 50.3601 171.546 50.8863C171.636 51.4244 171.761 51.9979 171.921 52.6067C172.093 53.209 172.246 53.8211 172.382 54.4428C172.524 55.0765 172.59 55.6824 172.579 56.2604C172.574 56.8503 172.437 57.396 172.168 57.8974C171.9 58.3988 171.438 58.8276 170.782 59.1837C170.15 59.5269 169.466 59.6742 168.73 59.6256C168.006 59.5706 167.28 59.2693 166.552 58.7219C165.842 58.18 165.19 57.3595 164.595 56.2604Z" fill="white"/>
  <path d="M185.005 67.9614L185.655 69.8929L172.16 74.4504L171.511 72.5189L185.005 67.9614ZM168.898 64.7544L168.248 62.8229L181.743 58.2654L182.393 60.1969L168.898 64.7544ZM177.584 70.6614L174.848 62.5299L176.525 61.9635L179.261 70.095L177.584 70.6614Z" fill="white"/>
  <defs>
    <clipPath id="clip0_442_5254">
      <rect width="53" height="53" fill="white" transform="translate(72 68)"/>
    </clipPath>
  </defs>
</svg>
